<?xml version="1.0" encoding="utf-8"?>
<!-- Generator: Adobe Illustrator 24.2.0, SVG Export Plug-In . SVG Version: 6.00 Build 0)  -->
<svg version="1.1" id="Layer_1_copy_Image" xmlns="http://www.w3.org/2000/svg" xmlns:xlink="http://www.w3.org/1999/xlink" x="0px"
	 y="0px" viewBox="0 0 149.4 38.7" style="enable-background:new 0 0 149.4 38.7;" xml:space="preserve">
<style type="text/css">
	.st0{fill-rule:evenodd;clip-rule:evenodd;}
</style>
<path class="st0" d="M144.3,19.9c-3.3-0.4-6.6-0.7-9.9-1c-5.1-0.5-10.3-0.9-15.5-1.3c-8.4-0.6-16.9-1.2-25.3-1.7
	c-4.1-0.2-8.2-0.2-12.3-0.3c-3.1,0-6.3,0-9.4-0.1c-1.6,0-1,0.3-0.5,1.5c1,2.3,1.8,4.5,1,6.7c-1.1,3.1-1.5,6.2-2.7,9.3
	c-0.5,1.6-0.9,3.3-1.2,5c0,0.2-1.2,1.3-1.9,0.6c-1.4-1.4-0.3-3.6,0.3-5.3c1.1-3.3,1.5-6.6,2.6-9.9c0.6-1.8-0.1-3.7-0.8-5.6
	c0-0.1-0.1-0.2-0.1-0.3c-0.5-2-1.5-1.9-4.1-1.8c-3.6,0.1-7.2,0-10.9,0.1c-7.4,0.2-14.7,0.4-22.1,0.6c-5.1,0.2-10.3,0.4-15.4,0.7
	c-4.1,0.2-8.3,0.5-12.4,0.8c-0.7,0-1.4,0-2.1,0c-1.2,0-1.6-0.6-1.6-1.5s0.5-1.2,1.6-1.2c3.6,0,7.2,0.5,10.6,0
	c3.9-0.6,7.8-0.3,11.6-0.8c1.9-0.2,3.9-0.2,5.8-0.3c3.1-0.1,6.3-0.2,9.4-0.3c6.7-0.2,13.4-0.4,20.1-0.5c3.6-0.1,7.2,0,10.8,0
	s7,0,10.5,0c2.5,0,4.9,0.2,7.4,0.3c2.8,0.1,5.5,0.1,8.3,0.2c3.5,0.2,6.9,0.4,10.4,0.6c3.8,0.2,7.6,0.5,11.4,0.7
	c3.3,0.2,6.5,0.6,9.8,0.9c1.9,0.2,3.9,0.2,5.8,0.4c2.4,0.2,4.8,0.4,7.2,0.6c2.2,0.3,4.4,0.2,6.4-0.5c0.8-0.3,1.7,0.1,2,0.9
	c0,0,0,0.1,0,0.1c0.3,0.9-0.2,1.8-1.1,2.1c-0.1,0-0.3,0.1-0.4,0.1c-1.2,0.1-2.4,0.1-3.6,0.1L144.3,19.9z"/>
<path class="st0" d="M79,30.7c0.8-2.2,2.1-4.2,2-6.7c0-0.5,0.2-0.9,0.6-1.2c0.7-0.7,1.7-0.5,1.8,0.5c0.3,2.4,1.9,3.9,3.3,5.6
	c0.5,0.6,1,0.7,1.4,0c1-1.8,1.9-3.7,2.8-5.5c0.3-0.5,0.3-1.2,0.5-1.8s0.7-1.2,0.9-1.1c0.5,0.1,1.3,0.6,1.3,1c0.1,1,0,1.9-0.4,2.8
	c-0.7,2-1.7,3.9-2.5,5.8l-0.1,0.3c-1.6,3.5-2.9,3.8-5.5,0.8c-0.5-0.6-1-1.3-1.5-1.9c-0.7-0.8-1.2-0.8-1.5,0.3
	c-0.4,1.2-0.7,2.5-1,3.7c0,0.3-0.2,0.5-0.3,0.7c-0.3,0.3-0.8,0.8-1,0.7c-0.4-0.2-0.7-0.6-0.9-1.1c-0.1-0.3-0.1-0.7-0.1-1
	C78.7,31.9,78.9,31.3,79,30.7z"/>
<path class="st0" d="M58.8,23c-0.2,1-0.3,1.7-1.3,1.7c-0.3,0-0.6,0.2-0.9,0.4c-1.8,2.1-3.7,4.2-5.5,6.4c-0.3,0.5-0.5,1-0.7,1.5
	c-0.2,0.3-0.6,0.7-0.8,0.7c-0.4-0.1-0.8-0.3-1-0.6c-0.3-0.5-0.5-1-0.6-1.5l-3.6-9.9c0-0.1-0.1-0.1-0.1-0.2c0-0.7,0.1-1.4,0.1-2.2
	c0.6,0.5,1.5,0.8,1.8,1.4c1.1,2.4,1.9,5,2.9,7.4c0.1,0.3,0.3,0.6,0.5,0.7s0.5-0.2,0.7-0.4c1.7-2,3.4-4,5.2-5.9
	c0.1-0.1,0.2-0.3,0.4-0.4c0.4-0.5,0.7-1.4,1.4-0.9C57.8,21.7,58.3,22.3,58.8,23z"/>
<path class="st0" d="M61.4,5.4c-0.2,0.3-0.3,0.8-0.6,0.9c-0.4,0.1-0.7,0-1-0.2c-1.2-1.2-2.3-2.4-3.3-3.8c-0.3-0.4-0.2-1.2-0.1-1.8
	c0-0.2,0.4-0.5,0.6-0.5c0.5,0.1,1,0.4,1.4,0.8c0.8,1,1.5,2,2.3,3C60.7,4,60.9,4.2,61,4.4C61.2,4.7,61.3,5,61.4,5.4z"/>
<path class="st0" d="M82.3,6.8c-0.2,0.2-0.4,0.8-0.7,0.8c-0.4,0-1.2-0.3-1.3-0.6c-0.3-1.2-0.6-2.5-0.7-3.8c0-0.3,0.5-0.7,0.7-1
	c0.4,0.3,1,0.5,1.1,0.9C81.8,4.3,82,5.4,82.3,6.8z"/>
<path class="st0" d="M67.4,2.9c0-0.3,0-0.6,0.1-0.8c0.1-0.3,0.3-0.6,0.6-0.6c0.3,0,0.6,0.1,0.8,0.4c0.5,1.4,0.9,2.9,1.3,4.3
	c0,0.3-0.2,0.5-0.4,0.7c-0.4-0.1-1-0.2-1.2-0.6c-0.5-1.1-1-2.1-1.4-3.2L67.4,2.9z"/>
</svg>
