<?xml version="1.0" encoding="utf-8"?>
<!-- Generator: Adobe Illustrator 24.3.0, SVG Export Plug-In . SVG Version: 6.00 Build 0)  -->
<svg version="1.1" id="Layer_1" xmlns="http://www.w3.org/2000/svg" xmlns:xlink="http://www.w3.org/1999/xlink" x="0px" y="0px"
	 viewBox="0 0 1000 768" style="enable-background:new 0 0 1000 768;" xml:space="preserve">
<style type="text/css">
	.st0{fill-rule:evenodd;clip-rule:evenodd;fill:#010101;}
	.st1{font-family:'Gotham-Light';}
	.st2{font-size:19px;}
</style>
<g>
	<path class="st0" d="M624.9,384.9c-5.9-0.6-11.8-1.3-17.8-1.8c-9.2-0.8-18.5-1.7-27.8-2.3c-15.1-1.1-30.2-2.2-45.4-3.1
		c-7.3-0.4-14.7-0.4-22-0.5c-5.6,0-11.3,0-16.9-0.1c-2.9,0-1.8,0.5-0.9,2.6c1.8,4.1,3.2,8.1,1.8,12.1c-2,5.6-2.8,11-4.8,16.6
		c-0.9,2.9-1.6,5.9-2.2,9c0,0.3-2.2,2.3-3.4,1.1c-2.6-2.5-0.5-6.5,0.6-9.6c1.9-6,2.7-11.8,4.6-17.8c1-3.2-0.1-6.7-1.5-10
		c0-0.2-0.2-0.4-0.2-0.6c-0.9-3.6-2.7-3.4-7.4-3.3c-6.5,0.2-13,0-19.5,0.2c-13.2,0.3-26.4,0.7-39.7,1.1c-9.2,0.3-18.4,0.8-27.6,1.3
		c-7.4,0.4-14.8,0.9-22.2,1.3c-1.3,0-2.6,0-3.8,0c-2.2,0-2.9-1.1-2.9-2.7c0-1.7,0.8-2.1,2.9-2.1c6.5,0,12.9,0.9,19,0
		c6.9-1,13.9-0.6,20.8-1.5c3.4-0.4,7-0.4,10.5-0.5c5.6-0.2,11.3-0.4,16.9-0.6c12-0.3,24-0.7,36.1-0.9c6.5-0.1,13,0,19.4,0
		c6.5,0,12.6,0,18.9,0c4.4,0,8.8,0.3,13.3,0.5c4.9,0.2,9.9,0.2,14.8,0.4c6.2,0.3,12.4,0.8,18.7,1.2c6.8,0.4,13.6,0.8,20.4,1.3
		c5.8,0.4,11.7,1.1,17.5,1.6c3.5,0.3,7,0.4,10.5,0.6c4.3,0.3,8.6,0.8,13,1.1c3.9,0.6,7.8,0.3,11.6-0.9c1.4-0.5,3,0.2,3.5,1.7
		c0,0,0,0.1,0,0.1c0.5,1.6-0.3,3.2-1.9,3.8c-0.2,0.1-0.5,0.1-0.7,0.1c-2.1,0.3-4.3,0.2-6.4,0.3L624.9,384.9z"/>
	<path class="st0" d="M507.8,404.2c1.3-3.9,3.7-7.6,3.6-11.9c0.1-0.8,0.4-1.6,1-2.2c1.3-1.3,3-1,3.2,0.9c0.5,4.3,3.3,7,5.9,10
		c0.9,1.1,1.8,1.3,2.5,0c1.8-3.3,3.4-6.6,5-10c0.5-1,0.5-2.2,0.9-3.2c0.4-1,1.2-2.1,1.6-2c0.9,0.2,2.3,1,2.4,1.8
		c0.2,1.7,0,3.5-0.6,5.1c-1.3,3.6-3,6.9-4.5,10.4l-0.2,0.5c-2.8,6.4-5.2,6.7-9.8,1.5c-1-1.1-1.8-2.3-2.7-3.4
		c-1.3-1.5-2.1-1.4-2.7,0.5c-0.7,2.2-1.3,4.4-1.8,6.6c-0.1,0.5-0.3,0.9-0.6,1.2c-0.6,0.6-1.4,1.5-1.8,1.3c-0.7-0.4-1.3-1.1-1.7-1.9
		c-0.2-0.6-0.2-1.2-0.2-1.8C507.3,406.5,507.5,405.3,507.8,404.2z"/>
	<path class="st0" d="M471.5,390.5c-0.3,1.8-0.6,3-2.3,3.1c-0.6,0-1.1,0.3-1.5,0.7c-3.3,3.8-6.6,7.6-9.8,11.4
		c-0.5,0.8-0.9,1.7-1.3,2.6c-0.4,0.5-1,1.3-1.5,1.2c-0.7-0.1-1.4-0.5-1.8-1.1c-0.5-0.9-0.8-1.8-1.1-2.7l-6.5-17.7
		c-0.1-0.1-0.1-0.2-0.1-0.4c0-1.3,0.1-2.6,0.2-3.9c1.1,0.8,2.7,1.5,3.2,2.6c1.9,4.4,3.5,8.9,5.2,13.3c0.2,0.5,0.5,1.1,0.8,1.2
		c0.4,0.1,0.9-0.4,1.2-0.7c3.1-3.6,6.2-7.2,9.2-10.7c0.2-0.3,0.4-0.5,0.7-0.7c0.7-0.8,1.2-2.4,2.5-1.6
		C469.7,388.2,470.7,389.3,471.5,390.5z"/>
	<path class="st0" d="M476.1,358.9c-0.3,0.6-0.5,1.4-1,1.7c-0.6,0.2-1.3,0-1.8-0.4c-2.1-2.1-4-4.4-5.9-6.7c-0.6-0.8-0.3-2.2-0.2-3.3
		c0-0.3,0.8-1,1-0.9c0.9,0.3,1.8,0.7,2.5,1.4c1.5,1.8,2.7,3.6,4.1,5.4c0.3,0.3,0.5,0.7,0.8,1C475.7,357.6,476,358.2,476.1,358.9z"/>
	<path class="st0" d="M513.7,361.5c-0.4,0.4-0.8,1.5-1.2,1.4c-0.8,0-2.2-0.5-2.3-1c-0.6-2.2-1-4.5-1.3-6.8c0-0.6,0.8-1.2,1.3-1.8
		c0.7,0.5,1.8,0.9,2,1.6C512.8,356.8,513.2,359,513.7,361.5z"/>
	<path class="st0" d="M487,354.3c0-0.5,0-1,0.1-1.5c0.2-0.5,0.6-1.1,1-1.1c0.5,0,1.1,0.2,1.4,0.6c0.9,2.5,1.7,5.1,2.3,7.7
		c-0.1,0.5-0.3,1-0.8,1.3c-0.8-0.2-1.8-0.4-2.2-1c-0.9-1.9-1.7-3.8-2.4-5.8L487,354.3z"/>
</g>
<text transform="matrix(1 0 0 1 420.2483 469.9376)" class="st1 st2">Van Tran Nguyen</text>
</svg>
